<svg width="245" height="185" viewBox="0 0 245 185" fill="none" xmlns="http://www.w3.org/2000/svg">
<path d="M8.3 149V79H24.5V149H8.3Z" fill="black"/>
<path d="M166.8 131L165.9 112.3L199.4 77H217.4L187.2 109.5L178.2 119.1L166.8 131ZM152.3 147V77H168.4V147H152.3ZM200.2 147L175.3 116.5L185.9 105L219.1 147H200.2Z" fill="black"/>
<path d="M63.2611 127.323C60.4522 122.711 58.6546 118.133 57.8681 113.589C57.1795 109.081 57.4972 104.848 58.8213 100.893C60.1454 96.9369 62.3874 93.425 65.5474 90.3569C68.742 87.3458 72.8324 84.9922 77.8186 83.2962C82.8047 81.6002 87.866 80.8409 93.0026 81.0183C98.1739 81.2526 103.19 82.2957 108.051 84.1476C112.947 86.0564 117.412 88.6961 121.446 92.0666C125.543 95.4156 129.013 99.4246 131.857 104.094C135.012 109.275 136.846 114.287 137.358 119.131C137.967 124.01 137.214 128.527 135.098 132.684L120.599 126.893C121.939 123.963 122.477 121.031 122.213 118.096C122.013 115.14 121.011 112.181 119.208 109.221C117.509 106.431 115.443 104.04 113.012 102.049C110.58 100.058 107.897 98.5308 104.963 97.4668C102.03 96.4027 98.974 95.8267 95.7968 95.739C92.6542 95.7082 89.505 96.2295 86.3493 97.3029C83.1935 98.3763 80.5992 99.8086 78.5663 101.6C76.5681 103.448 75.1424 105.548 74.2892 107.9C73.4361 110.252 73.2155 112.767 73.6274 115.445C74.0394 118.123 75.095 120.857 76.7942 123.647C78.5974 126.608 80.8931 129.126 83.6812 131.202C86.5325 133.257 89.9077 134.858 93.8069 136.006L90.128 147.98C84.5441 146.442 79.4592 143.911 74.8734 140.384C70.3222 136.915 66.4515 132.561 63.2611 127.323Z" fill="black"/>
<path d="M54.925 92.55H43.75C47 86.9 49.325 81.225 50.725 75.525C52.175 69.775 52.9 63.75 52.9 57.45C52.9 51.15 52.175 45.15 50.725 39.45C49.325 33.7 47 28 43.75 22.35H54.925C58.025 26.8 60.375 32.05 61.975 38.1C63.575 44.1 64.375 50.55 64.375 57.45C64.375 64.35 63.575 70.8 61.975 76.8C60.375 82.75 58.025 88 54.925 92.55Z" fill="black"/>
<path d="M132.535 83.8818C128.076 80.7478 123.989 76.7151 120.274 71.7837C116.586 66.7875 113.478 61.0794 110.949 54.6595C108.421 48.2395 106.801 41.9451 106.091 35.7762C105.409 29.5424 105.648 23.8056 106.809 18.5658L117.206 14.4704C116.346 20.8817 116.295 27.0281 117.053 32.9094C117.793 38.7442 119.317 44.5925 121.626 50.4542C123.935 56.3159 126.817 61.656 130.274 66.4746C133.712 71.2467 137.931 75.684 142.933 79.7865L132.535 83.8818Z" fill="black"/>
</svg>
